<?xml version="1.0" encoding="utf-8"?>
<!-- Generator: Adobe Illustrator 17.1.0, SVG Export Plug-In . SVG Version: 6.00 Build 0)  -->
<!DOCTYPE svg PUBLIC "-//W3C//DTD SVG 1.1//EN" "http://www.w3.org/Graphics/SVG/1.1/DTD/svg11.dtd">
<svg version="1.1" id="Layer_1" xmlns="http://www.w3.org/2000/svg" xmlns:xlink="http://www.w3.org/1999/xlink" x="0px" y="0px"
	 viewBox="0 0 127 131.1" enable-background="new 0 0 127 131.1" xml:space="preserve">
<g>
	<g>
		<circle fill="#9BAF57" cx="62.4" cy="66.6" r="56.7"/>
	</g>
	<path opacity="0.2" fill="#0D0F0F" d="M46.7,78.3C39,81.1,33.9,88.4,33.9,96.6V107h31.5h31.5V96.6c0-8.2-5.1-15.5-12.8-18.3
		l-0.7-0.3c-0.1-1.1-0.4-2.1-0.6-3h8.6c6.3-10.8,4.9-30.4-5.3-43.2c-10.2-12.8-18.8-8.7-18.8-8.7C49.4,17.7,35.6,42,35.6,55.9
		s3.2,19.2,3.2,19.2H48c-0.2,0.9-0.5,1.9-0.6,3L46.7,78.3z"/>
	<g>
		<g>
			<path fill="#3C4256" d="M31.1,93.8v10.4h31.5V68.8L44,75.5C36.3,78.3,31.1,85.7,31.1,93.8z"/>
		</g>
		<g>
			<path fill="#2E313E" d="M94.1,93.8v10.4H62.6V68.8l18.7,6.8C89,78.3,94.1,85.7,94.1,93.8z"/>
		</g>
		<g>
			<path fill="#C9AAA0" d="M76.2,66.4c-6-5-13.5,2.4-13.5,2.4v33l14.9-31.1L76.2,66.4z"/>
		</g>
		<g>
			<path fill="#DAC4BB" d="M62.6,68.8c0,0-7.5-7.4-13.5-2.4l-1.4,4.3l14.9,31.1l0,0V68.8L62.6,68.8z"/>
		</g>
		<g>
			<g>
				<path fill="#6C4360" d="M77,67.2c-0.5,0-1-0.2-1.4-0.6c-0.4-0.4-0.6-0.9-0.6-1.4c0-0.5,0.2-1,0.6-1.4s0.9-0.6,1.4-0.6
					c0.5,0,1,0.2,1.4,0.6c0.4,0.4,0.6,0.9,0.6,1.4c0,0.5-0.2,1-0.6,1.4C78.1,67,77.6,67.2,77,67.2z"/>
			</g>
			<g>
				<path fill="#6C4360" d="M62.6,81.6c-1.1,0-2-0.9-2-2l0,0c0-1.1,0.9-2,2-2l0,0c1.1,0,2,0.9,2,2l0,0
					C64.6,80.7,63.7,81.6,62.6,81.6L62.6,81.6L62.6,81.6z M56.4,80.4c-1-0.4-1.5-1.6-1.1-2.6l0,0c0.4-1,1.6-1.5,2.6-1.1l0,0
					c1,0.4,1.5,1.6,1.1,2.6l0,0c-0.3,0.8-1.1,1.2-1.9,1.2l0,0C56.9,80.5,56.6,80.5,56.4,80.4z M66.3,79.3c-0.4-1,0.1-2.2,1.1-2.6
					l0,0c1-0.4,2.2,0.1,2.6,1.1l0,0c0.4,1-0.1,2.2-1.1,2.6l0,0c-0.3,0.1-0.5,0.2-0.8,0.2l0,0C67.4,80.5,66.6,80,66.3,79.3z M51,76.8
					c-0.8-0.8-0.8-2.1,0-2.8l0,0c0.8-0.8,2.1-0.8,2.8,0l0,0c0.8,0.8,0.8,2.1,0,2.8l0,0c-0.4,0.4-0.9,0.6-1.4,0.6l0,0
					C51.9,77.4,51.4,77.2,51,76.8z M71.4,76.8c-0.8-0.8-0.8-2.1,0-2.8l0,0c0.8-0.8,2.1-0.8,2.8,0l0,0c0.8,0.8,0.8,2.1,0,2.8l0,0
					c-0.4,0.4-0.9,0.6-1.4,0.6l0,0C72.3,77.4,71.8,77.2,71.4,76.8z M47.5,71.5c-0.4-1,0.1-2.2,1.1-2.6l0,0c1-0.4,2.2,0.1,2.6,1.1
					l0,0c0.4,1-0.1,2.2-1.1,2.6l0,0c-0.3,0.1-0.5,0.2-0.8,0.2l0,0C48.5,72.7,47.8,72.2,47.5,71.5z M75.2,72.6
					c-1-0.4-1.5-1.6-1.1-2.6l0,0c0.4-1,1.6-1.5,2.6-1.1l0,0c1,0.4,1.5,1.6,1.1,2.6l0,0c-0.3,0.8-1.1,1.2-1.9,1.2l0,0
					C75.7,72.7,75.4,72.7,75.2,72.6z"/>
			</g>
			<g>
				<path fill="#6C4360" d="M48.2,67.2c-0.5,0-1-0.2-1.4-0.6c-0.4-0.4-0.6-0.9-0.6-1.4c0-0.5,0.2-1,0.6-1.4c0.4-0.4,0.9-0.6,1.4-0.6
					c0.5,0,1,0.2,1.4,0.6c0.4,0.4,0.6,0.9,0.6,1.4c0,0.5-0.2,1-0.6,1.4C49.3,67,48.8,67.2,48.2,67.2z"/>
			</g>
		</g>
		<g>
			<path fill="#AC71AC" d="M77.5,66.4c0,0,3.3,5.1,3.3,11.8L75.5,80l5.3,2.6c0,0-3.3,17.5-18.2,21.7v-4l13.5-33.8H77.5z"/>
		</g>
		<g>
			<path fill="#BC86B8" d="M47.7,66.4c0,0-3.3,5.1-3.3,11.8l5.3,1.8l-5.3,2.6c0,0,3.3,17.5,18.2,21.7v-4L49.1,66.4H47.7z"/>
		</g>
		<g>
			<path fill="#EDDDD0" d="M40.8,52.1c0,12,9.8,21.8,21.8,21.8V30.3C50.6,30.3,40.8,40.1,40.8,52.1z"/>
		</g>
		<g>
			<path fill="#DECCBD" d="M62.6,30.3v43.6c12,0,21.8-9.8,21.8-21.8C84.4,40.1,74.7,30.3,62.6,30.3z"/>
		</g>
		<g>
			<path fill="#382E1F" d="M54.1,72.3h-18c0,0-3.2-5.3-3.2-19.2s13.8-38.2,31.6-32.7c0,0,8.6-4.1,18.8,8.7
				c10.2,12.8,11.7,32.4,5.3,43.2H71c0,0,9.5-10.6,7.2-24.3c0,0-9.5-1.4-11.7-11.7c0,0-2.7,12.4-20.1,15.7
				C46.4,52,47.6,64.3,54.1,72.3z"/>
		</g>
	</g>
</g>
</svg>
