<?xml version="1.0" encoding="utf-8"?>
<!-- Generator: Adobe Illustrator 17.1.0, SVG Export Plug-In . SVG Version: 6.00 Build 0)  -->
<!DOCTYPE svg PUBLIC "-//W3C//DTD SVG 1.1//EN" "http://www.w3.org/Graphics/SVG/1.1/DTD/svg11.dtd">
<svg version="1.1" id="Layer_1" xmlns="http://www.w3.org/2000/svg" xmlns:xlink="http://www.w3.org/1999/xlink" x="0px" y="0px"
	 viewBox="0 0 148.6 187.8" enable-background="new 0 0 148.6 187.8" xml:space="preserve">
<g>
	<path fill="#51442B" d="M114.7,66.1c-3.1-6.5-2.3-8-3.7-15.2c-1.4-7.4-3.5-13.4-4.6-19.2c0-0.1,0-0.1,0-0.2c0-0.2-0.1-0.5-0.1-0.7
		l0,0C103.1,18,91.7,8.5,78,8.5c-13.7,0-25.1,9.5-28.1,22.3h0c0,0,0,0,0,0.1c-0.2,0.9-0.4,1.8-0.5,2.7c-1,5.8-2.9,10-4.3,17.4
		c-1.4,7.2-0.6,8.7-3.7,15.2c-1.8,3.8-3.2,5.6,1.8,7.7c8.4,3.6,19.7,4.1,28.6,4.1c2.4,0,4.6-0.3,6.2-1.2c1.7,0.8,3.9,1.2,6.2,1.2
		c9,0,20.2-0.6,28.6-4.1C117.9,71.7,116.5,69.9,114.7,66.1z"/>
	<path fill="#CA7191" d="M128.3,88.7c-1.9-2-15.7-9.2-31.9-12.7c0,0,0,0,0,0c-6.4-1.4-13.1-2.1-19.6-1.8c-6.4-0.3-13.3,0.4-19.6,1.7
		c0,0,0,0,0,0c0,0,0,0-0.1,0c0,0,0,0,0,0c0,0,0,0,0,0c-16.5,3.3-30.6,10.3-31.8,12.8c-2.7,5.6-11.6,42.9-9.8,52.1
		C17.1,150,29.8,161,29.8,161h46.9h46.9c0,0,12.7-11,14.5-20.3C139.9,131.5,133.4,94,128.3,88.7z"/>
	<path fill="#F2C470" d="M76.8,107c0,0,14.4-24.1,15.1-31.8c-5-0.8-10.1-1.2-15.1-1c-5-0.2-10.2,0.2-15.1,0.9
		C62.3,82.8,76.8,107,76.8,107z"/>
	<polygon fill="#F2C470" points="85.1,62.8 76.8,62.8 68.5,62.8 65,79.7 76.8,79.7 88.6,79.7 	"/>
	<path fill="#F2C470" d="M102,39.2c-0.1,0-0.2,0-0.3,0C99.9,24,89.8,12.3,77.5,12.3c-12.3,0-22.5,11.7-24.2,27
		c-2,0.6-3.5,3.2-3.5,6.3c0,3.4,1.8,6.1,4.1,6.4c1.6,7.8,5.5,14.4,10.7,18.6V78h24.5l0-7.5c5.9-4.1,10.4-10.1,12.1-18.6
		c0.3,0.1,0.6,0.1,0.8,0.1c2.4,0,4.4-2.9,4.4-6.4C106.3,42,104.4,39.2,102,39.2z"/>
	<path fill="#51442B" d="M103.7,34.5l-0.7-2.7c-0.4-2.2-1.6-4.3-2.4-6.4c-0.8-2.2-1.9-4.6-3.7-6.1c-2.1-1.8-4.9-2.5-6.8-4.4
		c-1.9-1.9-3.9-2.9-6.4-4.1c-3.5-1.6-8.8-1.1-12.5-0.4c-4.4,0.8-6.5,3.4-9.1,6.8c-1,1.3-3.9,4-5.2,6.5l-0.4,0
		c-2.6,4.2-5.2,7.5-4.3,12.7c0.3,1.8,1.1,3.2,1.9,4.8c1.2,2.3,1.9,4.7,2.6,7.1c0.3-4,0.9-7.8,2.4-11.5c0.8-2,1.9-4.1,2.6-6.2
		c0.9,0.5,1.9,0.9,2.8,1.3c4.2,1.9,9.2,3,13.8,3.4c5.4,0.5,11.2,1.2,16.8,0.8c0.1,0.2,0.2,0.4,0.3,0.7c1.5,3.8,2.1,7.5,2.4,11.5
		c0.8-2.4,1.5-4.8,2.6-7.1c0.8-1.6,1.6-3,1.9-4.8c0.1-0.5,0.2-1.1,0.2-1.6C102.9,34.8,103.3,34.6,103.7,34.5z"/>
	<path fill="#C9C6C9" d="M126.1,159.4c0,2.3-1.8,4.1-4.1,4.1H34.1c-2.3,0-4.1-1.8-4.1-4.1l-9.3-57.7c0-2.3,1.8-4.1,4.1-4.1h106.4
		c2.3,0,4.1,1.8,4.1,4.1L126.1,159.4z"/>
	<path opacity="0.28" fill="#C9C6C9" d="M128.8,99.3c2.1,0,3.9,1.7,3.9,3.9l-8.8,54.8c0,2.1-1.7,3.9-3.9,3.9H36.6
		c-2.1,0-3.9-1.7-3.9-3.9L128.8,99.3z"/>
	<path fill="#8A8A8B" d="M126.5,172.8c0,3-2.4,5.4-5.4,5.4H35.6c-3,0-5.4-2.4-5.4-5.4v-3.8c0-3,2.4-5.4,5.4-5.4h85.5
		c3,0,5.4,2.4,5.4,5.4V172.8z"/>
	<rect x="35.6" y="163.5" fill="#3F3F3F" width="86" height="3.2"/>
	<g opacity="0.28">
		<path fill="#CA7191" d="M134.5,106.9l-8.3,51.7c3.8-3.7,10.7-11.3,11.9-17.9C139.2,135.2,137.3,119.7,134.5,106.9z"/>
		<path fill="#CA7191" d="M91.8,75.1C90.9,75,90,74.8,89,74.7v0C90,74.8,90.9,75,91.8,75.1z"/>
		<path fill="#CA7191" d="M128.3,88.6c-1.7-1.8-13.4-8-27.7-11.7c-1.4-0.4-2.8-0.7-4.2-1c0,0,0,0,0,0c-1.5-0.3-3-0.6-4.5-0.8
			c-0.1,0.7-0.3,1.6-0.6,2.7c-1.5,5.2-5.8,13.4-9.3,19.8h49.2c0.3,0,0.7,0.1,1,0.1C130.9,93.3,129.6,90,128.3,88.6z"/>
		<path fill="#F2C470" d="M91.9,75.1c0,0-0.1,0-0.1,0C91.9,75.1,91.9,75.1,91.9,75.1C91.9,75.1,91.9,75.1,91.9,75.1z"/>
		<path fill="#F2C470" d="M102,39.2c-0.1,0-0.2,0-0.3,0c0-0.2,0-0.3-0.1-0.5c-0.4,0.8-0.8,1.6-1.2,2.4c-1.2,2.3-1.9,4.7-2.6,7.1
			c-0.3-4-0.9-7.8-2.4-11.5c-0.1-0.2-0.2-0.4-0.3-0.7c-5.6,0.4-11.4-0.3-16.8-0.8c-0.5-0.1-1-0.1-1.5-0.2v27.7v11.4v0v3.1v0.7v1.7
			v17.9h5.3c3.5-6.4,7.7-14.6,9.3-19.8c0.3-1,0.5-1.9,0.6-2.7c0,0-0.1,0-0.1,0C90.9,75,90,74.8,89,74.7v0l0-4.2
			c5.9-4.1,10.4-10.1,12.1-18.6c0.3,0.1,0.6,0.1,0.8,0.1c2.4,0,4.4-2.9,4.4-6.4C106.3,42,104.4,39.2,102,39.2z"/>
		<path fill="#51442B" d="M114.7,66.1c-3.1-6.5-2.3-8-3.7-15.2c-1.4-7.4-3.5-13.4-4.6-19.2c0-0.1,0-0.1,0-0.2c0-0.2-0.1-0.5-0.1-0.7
			l0,0C103.1,18,91.7,8.5,78,8.5c-0.4,0-0.8,0-1.2,0.1v1.3v2.5v22.7c0.5,0.1,1,0.1,1.5,0.2c5.4,0.5,11.2,1.2,16.8,0.8
			c0.1,0.2,0.2,0.4,0.3,0.7c1.5,3.8,2.1,7.5,2.4,11.5c0.8-2.4,1.5-4.8,2.6-7.1c0.4-0.8,0.9-1.6,1.2-2.4c0,0.2,0,0.3,0.1,0.5
			c0.1,0,0.2,0,0.3,0c2.4,0,4.4,2.9,4.4,6.4c0,3.5-2,6.4-4.4,6.4c-0.3,0-0.6,0-0.8-0.1c-1.7,8.5-6.2,14.5-12.1,18.6l0,4.2
			c0.9,0.1,1.9,0.3,2.8,0.4c0,0,0.1,0,0.1,0c0,0,0,0,0,0c1.5,0.2,3,0.5,4.5,0.8c0,0,0,0,0,0c1.4,0.3,2.8,0.6,4.2,1
			c4.4-0.6,8.6-1.6,12.3-3.2C117.9,71.7,116.5,69.9,114.7,66.1z"/>
		<path fill="#3F3F3F" d="M121.5,163.6L121.5,163.6l-0.4,0C121.3,163.5,121.4,163.5,121.5,163.6z"/>
	</g>
</g>
</svg>
