<?xml version="1.0" encoding="utf-8"?>
<!-- Generator: Adobe Illustrator 17.1.0, SVG Export Plug-In . SVG Version: 6.00 Build 0)  -->
<!DOCTYPE svg PUBLIC "-//W3C//DTD SVG 1.1//EN" "http://www.w3.org/Graphics/SVG/1.1/DTD/svg11.dtd">
<svg version="1.1" id="Layer_1" xmlns="http://www.w3.org/2000/svg" xmlns:xlink="http://www.w3.org/1999/xlink" x="0px" y="0px"
	 viewBox="0 0 155.4 190.5" enable-background="new 0 0 155.4 190.5" xml:space="preserve">
<g>
	<g>
		<rect x="16" y="21" fill="#2C3C45" width="115.5" height="152.4"/>
		<rect x="22" y="21" fill="#8A6AAA" width="115.5" height="152.4"/>
		<rect x="79.3" y="21" fill="#7F67A9" width="58.2" height="152.4"/>
		<rect x="42.3" y="43.2" fill="#E2A646" width="75.7" height="31.3"/>
		<rect x="42.3" y="79" fill="#E2A646" width="75.7" height="7.9"/>
	</g>
	<g>
		<ellipse fill="#2C3C45" cx="26" cy="24.7" rx="2" ry="2.1"/>
		<ellipse fill="#2C3C45" cx="26" cy="33.7" rx="2" ry="2.1"/>
		<ellipse fill="#2C3C45" cx="26" cy="42.7" rx="2" ry="2.1"/>
		<ellipse fill="#2C3C45" cx="26" cy="51.7" rx="2" ry="2.1"/>
		<ellipse fill="#2C3C45" cx="26" cy="60.7" rx="2" ry="2.1"/>
		<ellipse fill="#2C3C45" cx="26" cy="69.7" rx="2" ry="2.1"/>
		<ellipse fill="#2C3C45" cx="26" cy="78.7" rx="2" ry="2.1"/>
		<ellipse fill="#2C3C45" cx="26" cy="87.7" rx="2" ry="2.1"/>
		<ellipse fill="#2C3C45" cx="26" cy="96.7" rx="2" ry="2.1"/>
		<ellipse fill="#2C3C45" cx="26" cy="105.7" rx="2" ry="2.1"/>
		<ellipse fill="#2C3C45" cx="26" cy="114.7" rx="2" ry="2.1"/>
		<ellipse fill="#2C3C45" cx="26" cy="123.7" rx="2" ry="2.1"/>
		<ellipse fill="#2C3C45" cx="26" cy="132.7" rx="2" ry="2.1"/>
		<ellipse fill="#2C3C45" cx="26" cy="141.7" rx="2" ry="2.1"/>
		<ellipse fill="#2C3C45" cx="26" cy="150.7" rx="2" ry="2.1"/>
		<ellipse fill="#2C3C45" cx="26" cy="159.8" rx="2" ry="2.1"/>
		<ellipse fill="#2C3C45" cx="26" cy="168.8" rx="2" ry="2.1"/>
	</g>
</g>
</svg>
