<?xml version="1.0" encoding="utf-8"?>
<!-- Generator: Adobe Illustrator 17.1.0, SVG Export Plug-In . SVG Version: 6.00 Build 0)  -->
<!DOCTYPE svg PUBLIC "-//W3C//DTD SVG 1.1//EN" "http://www.w3.org/Graphics/SVG/1.1/DTD/svg11.dtd">
<svg version="1.1" id="Layer_1" xmlns="http://www.w3.org/2000/svg" xmlns:xlink="http://www.w3.org/1999/xlink" x="0px" y="0px"
	 viewBox="0 0 224.3 186.5" enable-background="new 0 0 224.3 186.5" xml:space="preserve">
<g>
	<g>
		<g>
			<path fill="#603743" d="M147.5,50.8c6.5-2.2,12.1-6,18.4-8.7c0.5-0.2,1-0.3,1.5-0.4l-0.6-1.5l-29-15.5l-1-0.6L147.1,51
				C147.3,51,147.4,50.9,147.5,50.8z"/>
		</g>
		<polygon fill="#FFFFFF" points="109.9,36.2 139.7,52.2 167.4,41.7 137.4,25.6 109.7,36.1 		"/>
		<path fill="#F0EAE5" d="M143.8,46.3c-3.4,1.3-6.9,2.1-10.5,2.6l6.4,3.4l27.7-10.5l-8.9-4.7C154.4,41,149.4,44.2,143.8,46.3z"/>
		<g>
			<path fill="#C64D44" d="M139.7,52.2l45.1,118.7c0,0,1.8,2.4,14.9-2.6c13.1-5,12.9-7.9,12.9-7.9L167.4,41.7c0,0-3.8-1.1-14.7,3.1
				C141.8,48.9,139.7,52.2,139.7,52.2z"/>
			
				<rect x="184.4" y="128.9" transform="matrix(-0.3553 -0.9348 0.9348 -0.3553 123.6032 372.8175)" fill="#603743" width="12" height="29.7"/>
			
				<rect x="179.8" y="108.9" transform="matrix(-0.3553 -0.9347 0.9347 -0.3553 132.0074 338.6023)" fill="#E2A646" width="6" height="29.7"/>
		</g>
		<g>
			<polygon fill="#5C9E95" points="109.7,36.1 109.9,36.2 109.7,36.1 			"/>
			<polygon fill="#603743" points="150.4,142.7 184.8,170.9 139.7,52.2 110.7,36.7 110.7,36.7 110.7,36.7 109.7,36.1 			"/>
		</g>
	</g>
	<g>
		<g>
			<g>
				<g>
					<polygon fill="#5C9E95" points="118.1,129.8 140.2,168.4 140.2,41.4 118.6,16.6 118.6,16.6 118.6,16.6 117.8,15.7 					"/>
				</g>
				<polygon fill="#FFFFFF" points="88.3,17.4 110.5,42.9 140.2,42.9 117.8,17.2 88.2,17.2 				"/>
				<path fill="#F0EAE5" d="M116.5,38.8c-3.6,0-7.2-0.5-10.7-1.3l4.7,5.4h29.7l-6.6-7.6C128.2,37.6,122.4,38.8,116.5,38.8z"/>
				<g>
					<path fill="#303F4B" d="M110.5,42.9v127c0,0,0.8,2.9,14.8,2.9c14,0,14.8-2.9,14.8-2.9v-127c0,0-3.2-2.4-14.8-2.4
						C113.7,40.6,110.5,42.9,110.5,42.9z"/>
					<rect x="110.5" y="140.5" fill="#D45B4C" width="29.7" height="12"/>
					<rect x="110.5" y="122.1" fill="#E2A646" width="29.7" height="6"/>
				</g>
				<g>
					<polygon fill="#5C9E95" points="88.2,17.2 88.3,17.4 88.2,17.2 					"/>
					<polygon fill="#5C9E95" points="88.4,131.3 110.5,169.9 110.5,42.9 88.9,18.1 88.9,18.1 88.9,18.1 88.2,17.2 					"/>
				</g>
			</g>
			<g>
				<g>
					<polygon fill="#E9C14C" points="80.9,129.8 103,168.4 103,41.4 81.4,16.6 81.4,16.6 81.4,16.6 80.7,15.7 					"/>
				</g>
				<polygon fill="#FFFFFF" points="51.1,17.4 73.3,42.9 103,42.9 80.7,17.2 51,17.2 				"/>
				<path fill="#F0EAE5" d="M79.3,38.8c-3.6,0-7.2-0.5-10.7-1.3l4.7,5.4H103l-6.6-7.6C91,37.6,85.2,38.8,79.3,38.8z"/>
				<g>
					<path fill="#452831" d="M73.3,42.9v127c0,0,0.8,2.9,14.8,2.9c14,0,14.8-2.9,14.8-2.9v-127c0,0-3.2-2.4-14.8-2.4
						C76.5,40.6,73.3,42.9,73.3,42.9z"/>
					<rect x="73.3" y="86.7" fill="#D45B4C" width="29.7" height="70.8"/>
					<rect x="73.3" y="68.3" fill="#E2A646" width="29.7" height="6"/>
					<rect x="73.3" y="56" fill="#E2A646" width="29.7" height="6"/>
				</g>
				<g>
					<polygon fill="#5C9E95" points="51,17.2 51.1,17.4 51,17.2 					"/>
					<polygon fill="#E9C14C" points="51.2,131.3 73.3,169.9 73.3,42.9 51.7,18.1 51.7,18.1 51.7,18.1 51,17.2 					"/>
				</g>
			</g>
			<g>
				<g>
					<polygon fill="#603743" points="46.5,129.8 68.6,168.4 68.6,41.4 47,16.6 47,16.6 47,16.6 46.3,15.7 					"/>
				</g>
				<polygon fill="#FFFFFF" points="16.7,17.4 38.9,42.9 68.6,42.9 46.3,17.2 16.6,17.2 				"/>
				<path fill="#F0EAE5" d="M44.9,38.8c-3.6,0-7.2-0.5-10.7-1.3l4.7,5.4h29.7L62,35.3C56.6,37.6,50.8,38.8,44.9,38.8z"/>
				<g>
					<path fill="#66ACB1" d="M38.9,42.9v127c0,0,0.8,2.9,14.8,2.9c14,0,14.8-2.9,14.8-2.9v-127c0,0-3.2-2.4-14.8-2.4
						C42.1,40.6,38.9,42.9,38.9,42.9z"/>
					<rect x="38.9" y="136.3" fill="#E2A646" width="29.7" height="21.2"/>
					<rect x="38.9" y="57" fill="#E2A646" width="29.7" height="30.6"/>
				</g>
				<g>
					<polygon fill="#5C9E95" points="16.6,17.2 16.7,17.4 16.6,17.2 					"/>
					<polygon fill="#303F4B" points="16.8,131.3 38.9,169.9 38.9,42.9 17.3,18.1 17.3,18.1 17.3,18.1 16.6,17.2 					"/>
				</g>
			</g>
		</g>
		<circle fill="#5C9E95" cx="125.6" cy="93.6" r="10.9"/>
	</g>
</g>
</svg>
