<?xml version="1.0" encoding="utf-8"?>
<!-- Generator: Adobe Illustrator 17.1.0, SVG Export Plug-In . SVG Version: 6.00 Build 0)  -->
<!DOCTYPE svg PUBLIC "-//W3C//DTD SVG 1.1//EN" "http://www.w3.org/Graphics/SVG/1.1/DTD/svg11.dtd">
<svg version="1.1" id="Layer_1" xmlns="http://www.w3.org/2000/svg" xmlns:xlink="http://www.w3.org/1999/xlink" x="0px" y="0px"
	 viewBox="0 0 128.4 128.4" enable-background="new 0 0 128.4 128.4" xml:space="preserve">
<g>
	<g>
		<circle fill="#C09571" cx="65.7" cy="62.2" r="56.7"/>
	</g>
	<polygon opacity="0.2" fill="#0D0F0F" points="101.6,83 101.6,80.8 101.6,73.2 101.6,71 101.6,63.3 101.6,61.2 101.6,53.5 
		101.6,51.3 101.6,43.7 101.6,41.5 101.6,37.9 94.5,37.9 87.4,37.9 87.4,41.5 87.4,43.7 87.4,44.1 81.8,44.1 76.2,44.1 76.2,39.1 
		76.2,39.1 76.2,37.2 76.2,37.2 76.2,34 69.8,34 63.3,34 63.3,27.5 57.4,27.5 51.5,27.5 51.5,31.2 43.4,31.2 35.3,31.2 35.3,37.3 
		35.3,40 35.3,57.6 35.3,60.2 35.3,77.8 35.3,80.4 35.3,86.5 27.1,86.5 27.1,89.9 109.9,89.9 109.9,86.5 101.6,86.5 	"/>
	<g>
		<rect x="73.5" y="41.3" fill="#303B3C" width="5.6" height="42.5"/>
	</g>
	<g>
		<rect x="79.1" y="41.3" fill="#253131" width="5.6" height="42.5"/>
	</g>
	<g>
		<g>
			<rect x="48.7" y="24.7" fill="#705339" width="5.9" height="59.1"/>
		</g>
		<g>
			<rect x="54.6" y="24.7" fill="#674B34" width="5.9" height="59.1"/>
		</g>
	</g>
	<g>
		<g>
			<rect x="32.5" y="28.4" fill="#633E38" width="8.1" height="55.3"/>
		</g>
		<g>
			<rect x="40.6" y="28.4" fill="#573735" width="8.1" height="55.3"/>
		</g>
	</g>
	<g>
		<g>
			<rect x="84.6" y="35.2" fill="#633E38" width="7.1" height="48.6"/>
		</g>
		<g>
			<rect x="91.8" y="35.2" fill="#573735" width="7.1" height="48.6"/>
		</g>
	</g>
	<g>
		<rect x="24.3" y="83.8" fill="#FFFFFF" width="82.8" height="3.4"/>
	</g>
	<g>
		<g>
			<rect x="34.4" y="39.8" fill="#BAA958" width="12.5" height="1.7"/>
		</g>
		<g>
			<rect x="34.4" y="42.7" fill="#BAA958" width="12.5" height="1.7"/>
		</g>
	</g>
	<g>
		<g>
			<rect x="32.5" y="34.5" fill="#916151" width="8.1" height="2.6"/>
		</g>
		<g>
			<rect x="40.6" y="34.5" fill="#86584C" width="8.1" height="2.6"/>
		</g>
		<g>
			<rect x="32.5" y="54.8" fill="#916151" width="8.1" height="2.6"/>
		</g>
		<g>
			<rect x="40.6" y="54.8" fill="#86584C" width="8.1" height="2.6"/>
		</g>
		<g>
			<rect x="32.5" y="75" fill="#916151" width="8.1" height="2.6"/>
		</g>
		<g>
			<rect x="40.6" y="75" fill="#86584C" width="8.1" height="2.6"/>
		</g>
	</g>
	<g>
		<rect x="35.2" y="66.4" fill="#BAA958" width="10.8" height="6"/>
	</g>
	<g>
		<g>
			<path fill="#A18466" d="M58.3,31.9H51c-0.3,0-0.6-0.3-0.6-0.6c0-0.3,0.3-0.6,0.6-0.6h7.3c0.3,0,0.6,0.3,0.6,0.6
				C58.9,31.6,58.6,31.9,58.3,31.9z"/>
		</g>
		<g>
			<path fill="#A18466" d="M58.3,41H51c-0.3,0-0.6-0.3-0.6-0.6c0-0.3,0.3-0.6,0.6-0.6h7.3c0.3,0,0.6,0.3,0.6,0.6
				C58.9,40.8,58.6,41,58.3,41z"/>
		</g>
		<g>
			<path fill="#A18466" d="M58.3,50.2H51c-0.3,0-0.6-0.3-0.6-0.6c0-0.3,0.3-0.6,0.6-0.6h7.3c0.3,0,0.6,0.3,0.6,0.6
				C58.9,50,58.6,50.2,58.3,50.2z"/>
		</g>
		<g>
			<path fill="#A18466" d="M58.3,59.4H51c-0.3,0-0.6-0.3-0.6-0.6c0-0.3,0.3-0.6,0.6-0.6h7.3c0.3,0,0.6,0.3,0.6,0.6
				C58.9,59.1,58.6,59.4,58.3,59.4z"/>
		</g>
		<g>
			<path fill="#A18466" d="M58.3,68.6H51c-0.3,0-0.6-0.3-0.6-0.6c0-0.3,0.3-0.6,0.6-0.6h7.3c0.3,0,0.6,0.3,0.6,0.6
				C58.9,68.3,58.6,68.6,58.3,68.6z"/>
		</g>
		<g>
			<path fill="#A18466" d="M58.3,77.8H51c-0.3,0-0.6-0.3-0.6-0.6c0-0.3,0.3-0.6,0.6-0.6h7.3c0.3,0,0.6,0.3,0.6,0.6
				C58.9,77.5,58.6,77.8,58.3,77.8z"/>
		</g>
	</g>
	<g>
		<g>
			<rect x="60.5" y="31.3" fill="#848B6A" width="6.5" height="52.5"/>
		</g>
		<g>
			<rect x="67" y="31.3" fill="#7A7F5F" width="6.5" height="52.5"/>
		</g>
	</g>
	<g>
		<g>
			<rect x="60.5" y="34.4" fill="#DEE1A3" width="6.5" height="1.9"/>
		</g>
		<g>
			<rect x="67" y="34.4" fill="#D3D48D" width="6.5" height="1.9"/>
		</g>
		<g>
			<rect x="60.5" y="78.7" fill="#DEE1A3" width="6.5" height="1.9"/>
		</g>
		<g>
			<rect x="67" y="78.7" fill="#D3D48D" width="6.5" height="1.9"/>
		</g>
		<g>
			<rect x="60.5" y="49.3" fill="#DEE1A3" width="6.5" height="1.9"/>
		</g>
		<g>
			<rect x="67" y="49.3" fill="#D3D48D" width="6.5" height="1.9"/>
		</g>
		<g>
			<rect x="60.5" y="64.1" fill="#DEE1A3" width="6.5" height="1.9"/>
		</g>
		<g>
			<rect x="67" y="64.1" fill="#D3D48D" width="6.5" height="1.9"/>
		</g>
	</g>
	<g>
		<rect x="62.3" y="38.8" fill="#0D0F0F" width="9.4" height="1.1"/>
	</g>
	<g>
		<rect x="62.3" y="40.7" fill="#0D0F0F" width="9.4" height="1.1"/>
	</g>
	<g>
		<rect x="62.3" y="42.6" fill="#0D0F0F" width="9.4" height="1.1"/>
	</g>
	<g>
		<rect x="62.3" y="44.5" fill="#0D0F0F" width="9.4" height="1.1"/>
	</g>
	<g>
		<rect x="73.5" y="45.7" fill="#826E45" width="11.2" height="2.3"/>
	</g>
	<g>
		<rect x="73.5" y="77.1" fill="#826E45" width="11.2" height="2.3"/>
	</g>
	<g>
		<g>
			<rect x="84.6" y="38.7" fill="#A18466" width="14.2" height="2.2"/>
		</g>
		<g>
			<rect x="84.6" y="48.5" fill="#A18466" width="14.2" height="2.2"/>
		</g>
		<g>
			<rect x="84.6" y="58.4" fill="#A18466" width="14.2" height="2.2"/>
		</g>
		<g>
			<rect x="84.6" y="68.2" fill="#A18466" width="14.2" height="2.2"/>
		</g>
		<g>
			<rect x="84.6" y="78" fill="#A18466" width="14.2" height="2.2"/>
		</g>
	</g>
	<g>
		<rect x="86.2" y="43.5" fill="#D1B057" width="11.1" height="2.2"/>
	</g>
</g>
</svg>
