<?xml version="1.0" encoding="utf-8"?>
<!-- Generator: Adobe Illustrator 17.1.0, SVG Export Plug-In . SVG Version: 6.00 Build 0)  -->
<!DOCTYPE svg PUBLIC "-//W3C//DTD SVG 1.1//EN" "http://www.w3.org/Graphics/SVG/1.1/DTD/svg11.dtd">
<svg version="1.1" id="Layer_1" xmlns="http://www.w3.org/2000/svg" xmlns:xlink="http://www.w3.org/1999/xlink" x="0px" y="0px"
	 viewBox="0 0 127 135.1" enable-background="new 0 0 127 135.1" xml:space="preserve">
<g>
	<g>
		<circle fill="#6F918A" cx="64.1" cy="67.6" r="56.7"/>
	</g>
	<path opacity="0.2" fill="#0D0F0F" d="M90.9,52c-1.6,0-3,1.3-3,3c0,0.1,0,0.2,0,0.3c0,0.1,0,0.2,0,0.2v13.3c0,1.3-0.4,2.5-1.1,3.6
		l-0.3,0.5c-0.2,0-0.4-0.1-0.6-0.1h-3.5c1.1-0.9,1.7-2.2,1.6-3.7l-2.7-42.4c-0.2-3.4-3-6-6.5-6h-8l0,0h-8c-3.4,0-6.2,2.6-6.5,6
		L49.8,69c-0.1,1.5,0.6,2.9,1.6,3.7H48c-0.2,0-0.5,0-0.7,0.1L47,72.3c-0.7-1-1.1-2.3-1.1-3.6V55.5c0-0.3,0-0.5-0.1-0.7
		c-0.1-1.5-1.4-2.7-3-2.7c-1.6,0-3,1.3-3,3c0,1.4,1,2.6,2.3,2.9V69c0,1.3,0.4,2.5,1.1,3.5l1.8,2.6c0,0.2-0.1,0.4-0.1,0.6v4.9H52v0.2
		c0,1,0.8,1.9,1.9,1.9h9.7v4.8h1.2v4.2h-1.2v7.7l-21,6.9v5.1c0,0.1,0,0.3,0,0.4c0,0.1,0,0.3,0,0.4c0,1.4,1.1,2.5,2.5,2.5
		c1.4,0,2.5-1.1,2.5-2.5c0-1.3-0.9-2.3-2.1-2.5V108l13.9-2.8c2.5-0.5,5.1-0.8,7.7-0.8c2.6,0,5.1,0.3,7.7,0.8l13.9,2.8v1.8
		c-1.2,0.2-2.1,1.2-2.1,2.5c0,1.4,1.1,2.5,2.5,2.5c1.4,0,2.5-1.1,2.5-2.5c0-0.1,0-0.2,0-0.4c0-0.1,0-0.2,0-0.3v-5.2l-21-6.9v-7.7
		h-1.2v-4.2h1.2v-4.8H80c1,0,1.9-0.8,1.9-1.9v-0.2h7.1v-4.9c0-0.2,0-0.5-0.1-0.7l1.7-2.5c0.7-1,1.1-2.3,1.1-3.5V57.9
		c1.3-0.3,2.2-1.5,2.2-2.9C93.9,53.4,92.5,52,90.9,52z"/>
	<g>
		<g>
			<rect x="62" y="83.4" fill="#D5D6DA" width="2.2" height="6.9"/>
		</g>
		<g>
			<rect x="64.2" y="83.4" fill="#C0C1C5" width="2.2" height="6.9"/>
		</g>
	</g>
	<g>
		<g>
			<path fill="#272727" d="M64.2,17.8h-8c-3.4,0-6.2,2.6-6.5,6L47,66.2c-0.2,2.5,1.9,4.7,4.4,4.7h12.8h0L64.2,17.8L64.2,17.8z"/>
		</g>
		<g>
			<path fill="#202020" d="M81.3,66.2l-2.7-42.4c-0.2-3.4-3-6-6.5-6h-8v53.1h12.8C79.5,70.9,81.5,68.8,81.3,66.2z"/>
		</g>
	</g>
	<g>
		<path fill="#C0C1C5" d="M44.7,70.4l-0.5-0.8c-0.7-1-1.1-2.3-1.1-3.6V52.7c0-1.8-1.4-3.2-3.2-3.2l0,0c-1.3,0-2.1,1.3-1.6,2.4
			l1.1,2.3v12c0,1.3,0.4,2.5,1.1,3.5l2.3,3.4C42.7,73.2,44.4,73.2,44.7,70.4z"/>
	</g>
	<g>
		<path fill="#C0C1C5" d="M83.5,70.4l0.5-0.8c0.7-1,1.1-2.3,1.1-3.6V52.7c0-1.8,1.4-3.2,3.2-3.2l0,0c1.3,0,2.1,1.3,1.6,2.4l-1.1,2.3
			v12c0,1.3-0.4,2.5-1.1,3.5l-2.3,3.4C85.5,73.2,83.8,73.2,83.5,70.4z"/>
	</g>
	<g>
		<circle fill="#373737" cx="40.1" cy="52.2" r="3"/>
	</g>
	<g>
		<circle fill="#373737" cx="88.1" cy="52.2" r="3"/>
	</g>
	<g>
		<rect x="60.8" y="77.9" fill="#353535" width="6.7" height="6.9"/>
	</g>
	<g>
		<path fill="#0D0F0F" d="M77.2,80H51.1c-1,0-1.9-0.8-1.9-1.9v-1.5h29.9v1.5C79.1,79.1,78.2,80,77.2,80z"/>
	</g>
	<g>
		<rect x="60.8" y="89" fill="#0D0F0F" width="6.7" height="8.1"/>
	</g>
	<g>
		<g>
			<rect x="54.7" y="49.6" fill="#C0C1C5" width="18.9" height="1.2"/>
		</g>
		<g>
			<rect x="54.7" y="40" fill="#C0C1C5" width="18.9" height="1.2"/>
		</g>
		<g>
			<rect x="54.7" y="30.4" fill="#C0C1C5" width="18.9" height="1.2"/>
		</g>
	</g>
	<g>
		<g>
			<path fill="#3A3A3A" d="M45.2,69.9c-1.7,0-3,1.4-3,3v4.9h22v-7.9H45.2z"/>
		</g>
		<g>
			<path fill="#353535" d="M64.2,77.9h22V73c0-1.7-1.4-3-3-3h-19V77.9"/>
		</g>
	</g>
	<g>
		<path fill="#353535" d="M64.2,95.6v6.1c2.6,0,5.1,0.3,7.7,0.8l13.9,2.8v2.1l-1.4,3.5h2.2c1.1,0,2.1-0.9,2.1-2.1v-5.2L64.2,95.6z"
			/>
	</g>
	<g>
		<path fill="#434243" d="M39.8,103.6v5.1c0,1.2,1,2.1,2.1,2.1H44l-1.4-3.5v-2.1l13.9-2.8c2.5-0.5,5.1-0.8,7.7-0.8v-6.1L39.8,103.6z
			"/>
	</g>
	<g>
		<circle fill="#0D0F0F" cx="42.3" cy="109.5" r="2.5"/>
	</g>
	<g>
		<circle fill="#0D0F0F" cx="86" cy="109.5" r="2.5"/>
	</g>
</g>
</svg>
