<?xml version="1.0" encoding="utf-8"?>
<!-- Generator: Adobe Illustrator 17.1.0, SVG Export Plug-In . SVG Version: 6.00 Build 0)  -->
<!DOCTYPE svg PUBLIC "-//W3C//DTD SVG 1.1//EN" "http://www.w3.org/Graphics/SVG/1.1/DTD/svg11.dtd">
<svg version="1.1" id="Layer_1" xmlns="http://www.w3.org/2000/svg" xmlns:xlink="http://www.w3.org/1999/xlink" x="0px" y="0px"
	 viewBox="0 0 147.3 154.1" enable-background="new 0 0 147.3 154.1" xml:space="preserve">
<g>
	<circle fill="#CE4C50" cx="76.5" cy="78.5" r="62.7"/>
	<g>
		<g>
			<path fill="#7D4441" d="M134.6,54.7l-30.6-20v54.2h-9.1v30.4l-45.5,0.6L81.5,141c32.3-2.6,57.7-29.6,57.7-62.5
				C139.3,70,137.6,62,134.6,54.7z"/>
		</g>
	</g>
	<g>
		<path fill="#2A2F3A" d="M105.9,116.1c0,2.5-2,4.5-4.5,4.5H51.7c-2.5,0-4.5-2-4.5-4.5V38.2c0-2.5,2-4.5,4.5-4.5h49.7
			c2.5,0,4.5,2,4.5,4.5V116.1z"/>
		<path fill="#394157" d="M101.4,33.7H76.6v86.9h24.8c2.5,0,4.5-2,4.5-4.5V38.2C105.9,35.7,103.9,33.7,101.4,33.7z"/>
		<rect x="53.7" y="40.1" fill="#F1F1DF" width="45.8" height="65.9"/>
		<rect x="68.5" y="36.2" fill="#CF4A43" width="16.2" height="1.8"/>
		<rect x="76.5" y="36.2" fill="#8F4B47" width="8.1" height="1.8"/>
		<path fill="#E1A245" d="M81,112.8c0,2.4-2,4.4-4.4,4.4l0,0c-2.4,0-4.4-2-4.4-4.4l0,0c0-2.4,2-4.4,4.4-4.4l0,0
			C79,108.4,81,110.4,81,112.8L81,112.8z"/>
		<path fill="#D17D46" d="M76.7,108.4c0,0-0.1,0-0.1,0v8.8c0,0,0.1,0,0.1,0c2.4,0,4.4-2,4.4-4.4C81.1,110.4,79.1,108.4,76.7,108.4z"
			/>
		<rect x="76.5" y="40.1" fill="#FEFDF4" width="22.9" height="65.9"/>
	</g>
</g>
</svg>
