<?xml version="1.0" encoding="utf-8"?>
<!-- Generator: Adobe Illustrator 17.1.0, SVG Export Plug-In . SVG Version: 6.00 Build 0)  -->
<!DOCTYPE svg PUBLIC "-//W3C//DTD SVG 1.1//EN" "http://www.w3.org/Graphics/SVG/1.1/DTD/svg11.dtd">
<svg version="1.1" id="Layer_1" xmlns="http://www.w3.org/2000/svg" xmlns:xlink="http://www.w3.org/1999/xlink" x="0px" y="0px"
	 viewBox="0 0 140.5 154.1" enable-background="new 0 0 140.5 154.1" xml:space="preserve">
<g>
	<g>
		<circle fill="#99BC59" cx="71.4" cy="82.4" r="62.8"/>
		<g>
			<path fill="#6F9157" d="M134.2,82.4c0-7.1-1.2-13.9-3.3-20.2L98.4,41.4v3.8h-2V93H48.6v31.2l31.7,20.3
				C110.8,140.2,134.2,114,134.2,82.4z"/>
		</g>
	</g>
	<g>
		<g>
			<g>
				<g>
					<path fill="#455C6D" d="M72.7,46.1c-21.4,0-38.7,17.3-38.7,38.7c0,21.4,17.3,38.7,38.7,38.7c21.4,0,38.7-17.3,38.7-38.7
						C111.4,63.5,94.1,46.1,72.7,46.1z M72.7,116.1c-17.3,0-31.2-14-31.2-31.2s14-31.2,31.2-31.2c17.3,0,31.2,14,31.2,31.2
						S89.9,116.1,72.7,116.1z"/>
					<path fill="#151618" d="M72.7,46.1v7.5c17.3,0,31.2,14,31.2,31.2s-14,31.2-31.2,31.2v7.5c21.4,0,38.7-17.3,38.7-38.7
						C111.4,63.5,94.1,46.1,72.7,46.1z"/>
					<circle fill="#C9BAB3" cx="72.7" cy="84.9" r="31.2"/>
					<circle fill="#FEFDF4" cx="72.7" cy="84.9" r="28.2"/>
					<path fill="#F1F4F3" d="M72.7,56.6c0,0-0.1,0-0.1,0v56.5c0,0,0.1,0,0.1,0c15.6,0,28.2-12.6,28.2-28.2
						C100.9,69.3,88.3,56.6,72.7,56.6z"/>
				</g>
				<path fill="#B54F46" d="M73.6,105.4l-0.2-19.8l-1.2,0l0.2,19.8c0,0.3,0.3,0.6,0.6,0.6C73.3,106,73.6,105.7,73.6,105.4z"/>
				<circle fill="#252E39" cx="72.6" cy="84.7" r="3"/>
				<path fill="#252E39" d="M90.5,75.5l-17.7,8.4l0.5,1.1L91,76.6c0.3-0.1,0.4-0.5,0.3-0.8C91.1,75.5,90.8,75.4,90.5,75.5z"/>
				<path fill="#252E39" d="M72.5,83c0.5,0.5,0.5,1.3,0,1.8l0,0c-0.5,0.5-1.3,0.5-1.8,0L57.4,71.5c-0.5-0.5-0.5-1.3,0-1.8l0,0
					c0.5-0.5,1.3-0.5,1.8,0L72.5,83z"/>
				<circle fill="#151618" cx="72.6" cy="84.7" r="2.1"/>
			</g>
			<path fill="#455C6D" d="M53.6,43.6c-2.6-3-7.1-3.3-10.1-0.8l-6,5.2c-3,2.6-3.3,7.1-0.8,10.1l2.4,2.8l5.4-4.7l2.7,3.1l5.8-5
				l-2.7-3.1l5.7-4.9L53.6,43.6z"/>
			<path fill="#151618" d="M90,43.6c2.3-3.2,6.8-3.9,10-1.6l6.5,4.7c3.2,2.3,3.9,6.8,1.6,10l-2.2,3l-5.8-4.2l-2.4,3.4l-6.3-4.5
				l2.4-3.4l-6.1-4.4L90,43.6z"/>
			<path fill="#455C6D" d="M54.7,122.6c-1.1,2.1-3.7,2.8-5.8,1.7l0,0c-2.1-1.1-2.8-3.7-1.7-5.8l2-3.6c1.1-2.1,3.7-2.8,5.8-1.7l0,0
				c2.1,1.1,2.8,3.7,1.7,5.8L54.7,122.6z"/>
			<path fill="#151618" d="M88,124.2c1.1,2.1,3.7,2.8,5.8,1.7l0,0c2.1-1.1,2.8-3.7,1.7-5.8l-2-3.6c-1.1-2.1-3.7-2.8-5.8-1.7l0,0
				c-2.1,1.1-2.8,3.7-1.7,5.8L88,124.2z"/>
		</g>
		<circle fill="#151618" cx="90.3" cy="102.7" r="1.5"/>
		<circle fill="#151618" cx="54.7" cy="67.2" r="1.5"/>
		<circle fill="#151618" cx="54.7" cy="102.7" r="1.5"/>
		<circle fill="#151618" cx="90.3" cy="67.2" r="1.5"/>
		<circle fill="#151618" cx="47.4" cy="84.9" r="1.5"/>
		<circle fill="#151618" cx="97.6" cy="84.9" r="1.5"/>
		<circle fill="#151618" cx="72.5" cy="59.8" r="1.5"/>
		<circle fill="#151618" cx="72.5" cy="110.1" r="1.5"/>
		<path fill="#151618" d="M72.5,40.9c-0.1,0-0.1,0-0.2,0v11.6c0.1,0,0.1,0,0.2,0c1.7,0,3.1-1.4,3.1-3.1v-5.4
			C75.7,42.3,74.3,40.9,72.5,40.9z"/>
		<path fill="#455C6D" d="M72.6,40.9C72.6,40.9,72.5,40.9,72.6,40.9c-1.8,0-3.2,1.4-3.2,3.1v5.4c0,1.7,1.4,3.1,3.1,3.1
			c0,0,0,0,0.1,0V40.9z"/>
	</g>
</g>
</svg>
