<?xml version="1.0" encoding="utf-8"?>
<!-- Generator: Adobe Illustrator 17.1.0, SVG Export Plug-In . SVG Version: 6.00 Build 0)  -->
<!DOCTYPE svg PUBLIC "-//W3C//DTD SVG 1.1//EN" "http://www.w3.org/Graphics/SVG/1.1/DTD/svg11.dtd">
<svg version="1.1" id="Layer_1" xmlns="http://www.w3.org/2000/svg" xmlns:xlink="http://www.w3.org/1999/xlink" x="0px" y="0px"
	 viewBox="0 0 205.8 137.6" enable-background="new 0 0 205.8 137.6" xml:space="preserve">
<g>
	<rect x="30.6" y="16.9" fill="#593A34" width="150" height="101.8"/>
	<rect x="41.6" y="27" fill="#FDFAE0" width="128" height="81.5"/>
	<g>
		<rect x="84.6" y="38.2" fill="#31202C" width="42.1" height="8.1"/>
		<rect x="74.6" y="52.3" fill="#31202C" width="62.1" height="8.1"/>
		<rect x="84.6" y="66.3" fill="#31202C" width="42.1" height="8.1"/>
	</g>
	<polygon fill="#C45C46" points="161.1,102.3 151.5,107.5 141.9,102.3 126.7,130.6 135.8,129 139.6,137.6 151.5,115.4 163.4,137.6 
		167.1,129 176.3,130.6 	"/>
	<polygon opacity="0.28" fill="#C45C46" points="161.1,102.3 151.5,107.5 141.9,102.3 126.7,130.6 135.8,129 139.6,137.6 
		151.5,115.4 163.4,137.6 167.1,129 176.3,130.6 	"/>
	<circle fill="#C45C46" cx="151.7" cy="97" r="17.3"/>
	<circle fill="#EBCA8A" cx="151.7" cy="97" r="9.6"/>
</g>
</svg>
