<?xml version="1.0" encoding="utf-8"?>
<!-- Generator: Adobe Illustrator 17.1.0, SVG Export Plug-In . SVG Version: 6.00 Build 0)  -->
<!DOCTYPE svg PUBLIC "-//W3C//DTD SVG 1.1//EN" "http://www.w3.org/Graphics/SVG/1.1/DTD/svg11.dtd">
<svg version="1.1" id="Layer_1" xmlns="http://www.w3.org/2000/svg" xmlns:xlink="http://www.w3.org/1999/xlink" x="0px" y="0px"
	 viewBox="0 0 145.9 150" enable-background="new 0 0 145.9 150" xml:space="preserve">
<g>
	<circle fill="#67A1D0" cx="75" cy="77.3" r="62.8"/>
	<path fill="#4D76A5" d="M136.2,63.3l-20.3-13.3v11.4h-4.4v25.7H35.6v17.7l52,34c28.6-5.9,50.1-31.2,50.1-61.5
		C137.8,72.5,137.2,67.8,136.2,63.3z"/>
	<g>
		<path fill="#FEFDF4" d="M118.7,100c0,2.8-2.3,5.2-5.2,5.2H38c-2.8,0-5.2-2.3-5.2-5.2V54.7c0-2.8,2.3-5.2,5.2-5.2h75.5
			c2.8,0,5.2,2.3,5.2,5.2V100z"/>
		<rect x="32.8" y="57.4" fill="#2A2F3B" width="85.8" height="9.5"/>
		<circle fill="#E1A245" cx="100.4" cy="83.8" r="11.8"/>
		<g>
			<g>
				<rect x="38.9" y="72.7" fill="#F1F1DF" width="41.2" height="3.6"/>
				<rect x="38.9" y="79.5" fill="#F1F1DF" width="41.2" height="3.6"/>
			</g>
			<g>
				<rect x="38.9" y="86.7" fill="#F1F1DF" width="41.2" height="3.6"/>
				<rect x="38.9" y="93.6" fill="#F1F1DF" width="41.2" height="3.6"/>
			</g>
		</g>
	</g>
</g>
</svg>
