<?xml version="1.0" encoding="utf-8"?>
<!-- Generator: Adobe Illustrator 17.1.0, SVG Export Plug-In . SVG Version: 6.00 Build 0)  -->
<!DOCTYPE svg PUBLIC "-//W3C//DTD SVG 1.1//EN" "http://www.w3.org/Graphics/SVG/1.1/DTD/svg11.dtd">
<svg version="1.1" id="Layer_1" xmlns="http://www.w3.org/2000/svg" xmlns:xlink="http://www.w3.org/1999/xlink" x="0px" y="0px"
	 viewBox="0 0 132.4 140.5" enable-background="new 0 0 132.4 140.5" xml:space="preserve">
<g>
	<g>
		<circle fill="#C296B7" cx="69.1" cy="73.4" r="56.7"/>
	</g>
	<path opacity="0.2" fill="#0D0F0F" d="M75.7,84.4v-0.1c0.8-0.2,1.4-0.9,1.4-1.7v-0.9c4.8-3.2,8.5-7.9,10.4-13.3
		c8.1-4.4,13.4-13,13.4-22.5V34.5H89.2l0,0H71.3H53.4l0,0H41.7v11.2c0,9.6,5.3,18.1,13.4,22.5c2,5.4,5.6,10.1,10.4,13.3v0.9
		c0,0.9,0.6,1.6,1.4,1.7v0.1c0,0.9,0.7,1.7,1.7,1.8l-8.2,13.3h-0.9c-1.1,0-2.1,0.9-2.1,2.1v11.6h-2c-1.1,0-2.1,0.9-2.1,2.1v7.9h17.9
		h17.9v-7.9c0-1.1-0.9-2.1-2.1-2.1h-2v-11.6c0-1.1-0.9-2.1-2.1-2.1h-0.9l-8.1-13.4C75.1,86.1,75.7,85.3,75.7,84.4z M96.7,38.7v7
		c0,2.4-0.4,4.7-1.1,6.9c-0.7,2.2-1.8,4.2-3.2,6c-1,1.3-2.1,2.5-3.4,3.5c0.1-1.1,0.2-2.2,0.2-3.4V38.7H96.7z M50.2,58.7
		c-1.4-1.8-2.5-3.9-3.2-6c-0.8-2.2-1.1-4.5-1.1-6.9v-7h7.5v20.1c0,1.1,0.1,2.3,0.2,3.4C52.4,61.2,51.2,60,50.2,58.7z"/>
	<g>
		<path fill="#DCC44F" d="M53.3,35.9v25.3c-0.3-0.2-0.6-0.4-1-0.6c-1.9-1.3-3.5-2.9-4.9-4.7c-1.4-1.8-2.5-3.9-3.2-6
			c-0.8-2.2-1.1-4.5-1.1-6.9v-7H53.3 M57.6,31.7H38.9V43c0,11.5,7.6,21.6,18.7,24.7V31.7L57.6,31.7z"/>
	</g>
	<g>
		<path fill="#DCC44F" d="M94,35.9v7c0,2.4-0.4,4.7-1.1,6.9c-0.7,2.2-1.8,4.2-3.2,6c-1.4,1.8-3,3.4-4.9,4.7c-0.3,0.2-0.6,0.4-1,0.6
			V35.9H94 M98.2,31.7H79.5v35.9C90.5,64.5,98.2,54.4,98.2,43V31.7L98.2,31.7z"/>
	</g>
	<g>
		<path fill="#EDD85A" d="M50.6,31.7v24.3c0,11.5,7.1,21.7,17.9,25.7l0,0V31.7H50.6z"/>
	</g>
	<g>
		<path fill="#DCC44F" d="M86.4,56.1V31.7H68.5v50.1l0,0C79.3,77.8,86.4,67.5,86.4,56.1z"/>
	</g>
	<g>
		<polygon fill="#DCC44F" points="79.5,96.8 71.2,83.1 68.5,83.1 68.5,96.8 		"/>
	</g>
	<g>
		<polygon fill="#EDD85A" points="57.6,96.8 68.5,96.8 68.5,83.1 66,83.1 		"/>
	</g>
	<g>
		<path fill="#303137" d="M54.6,98.8v12.3h13.9V96.8H56.7C55.6,96.8,54.6,97.7,54.6,98.8z"/>
	</g>
	<g>
		<path fill="#26272C" d="M80.4,96.8H68.5v14.3h13.9V98.8C82.4,97.7,81.5,96.8,80.4,96.8z"/>
	</g>
	<g>
		<path fill="#2D2F35" d="M84.4,110.4H68.5v10h17.9v-7.9C86.4,111.3,85.5,110.4,84.4,110.4z"/>
	</g>
	<g>
		<path fill="#3F4045" d="M50.6,112.5v7.9h17.9v-10H52.7C51.5,110.4,50.6,111.3,50.6,112.5z"/>
	</g>
	<g>
		<path fill="#DDC46B" d="M61.3,99.3c-1,0-1.8,0.8-1.8,1.8v5.4c0,1,0.8,1.8,1.8,1.8h7.3v-9.1H61.3z"/>
	</g>
	<g>
		<path fill="#D1B057" d="M75.8,99.3h-7.3v9.1h7.3c1,0,1.8-0.8,1.8-1.8v-5.4C77.6,100.1,76.8,99.3,75.8,99.3z"/>
	</g>
	<g>
		<path fill="#EDD356" d="M75.8,108.6H61.3c-1.1,0-2-0.9-2-2v-5.4c0-1.1,0.9-2,2-2h14.5c1.1,0,2,0.9,2,2v5.4
			C77.8,107.7,76.9,108.6,75.8,108.6z M61.3,99.5c-0.9,0-1.6,0.7-1.6,1.6v5.4c0,0.9,0.7,1.6,1.6,1.6h14.5c0.9,0,1.6-0.7,1.6-1.6
			v-5.4c0-0.9-0.7-1.6-1.6-1.6H61.3z"/>
	</g>
	<g>
		<circle fill="#F1E17C" cx="61.8" cy="103.9" r="0.7"/>
	</g>
	<g>
		<circle fill="#F1E17C" cx="75.2" cy="103.9" r="0.7"/>
	</g>
	<g>
		<path fill="#AC6446" d="M71.1,83.4h-5.2c-1,0-1.8-0.8-1.8-1.8v-0.3h8.8v0.3C72.9,82.6,72.1,83.4,71.1,83.4z"/>
	</g>
	<g>
		<path fill="#A34F44" d="M72.5,81.6h-8c-1,0-1.8-0.8-1.8-1.8v-1h11.6v1C74.3,80.8,73.5,81.6,72.5,81.6z"/>
	</g>
</g>
</svg>
