<?xml version="1.0" encoding="utf-8"?>
<!-- Generator: Adobe Illustrator 17.1.0, SVG Export Plug-In . SVG Version: 6.00 Build 0)  -->
<!DOCTYPE svg PUBLIC "-//W3C//DTD SVG 1.1//EN" "http://www.w3.org/Graphics/SVG/1.1/DTD/svg11.dtd">
<svg version="1.1" id="Layer_1" xmlns="http://www.w3.org/2000/svg" xmlns:xlink="http://www.w3.org/1999/xlink" x="0px" y="0px"
	 viewBox="0 0 231.1 195.9" enable-background="new 0 0 231.1 195.9" xml:space="preserve">
<g>
	<g>
		<g>
			<polygon fill="#5C9E95" points="67.6,140.5 25.9,164.3 162.7,164.3 189.5,141.1 189.5,141.1 189.5,141.1 190.4,140.3 			"/>
		</g>
		<polygon fill="#FFFFFF" points="188.6,108.4 161.1,132.4 161.1,164.3 188.8,140.3 188.8,108.3 		"/>
		<path fill="#F0EAE5" d="M165.5,138.8c0-3.9,0.5-7.8,1.4-11.6l-5.9,5.1v32l8.2-7.1C166.8,151.4,165.5,145.2,165.5,138.8z"/>
		<g>
			<path fill="#457268" d="M161.1,132.4H24.3c0,0-3.1,0.9-3.1,16c0,15.1,3.1,16,3.1,16h136.8c0,0,2.5-3.4,2.5-16
				C163.7,135.8,161.1,132.4,161.1,132.4z"/>
			<rect x="43" y="132.4" fill="#D45B4C" width="12.9" height="32"/>
			<rect x="69.3" y="132.4" fill="#E2A646" width="6.5" height="32"/>
			<rect x="82.5" y="132.4" fill="#E2A646" width="6.5" height="32"/>
		</g>
		<g>
			<polygon fill="#5C9E95" points="188.8,108.3 188.6,108.4 188.8,108.3 			"/>
			<polygon fill="#5C9E95" points="65.9,108.5 24.3,132.4 161.1,132.4 187.9,109.1 187.9,109.1 187.9,109.1 188.8,108.3 			"/>
		</g>
	</g>
	<g>
		<g>
			<polygon fill="#D45B4C" points="93,100.4 51.4,124.3 188.2,124.3 214.9,101 214.9,101 214.9,101 215.9,100.2 			"/>
		</g>
		<polygon fill="#FFFFFF" points="214.1,68.4 186.6,92.3 186.6,124.3 214.2,100.2 214.2,68.2 		"/>
		<path fill="#F0EAE5" d="M191,98.8c0-3.9,0.5-7.8,1.4-11.6l-5.9,5.1v32l8.2-7.1C192.3,111.4,191,105.1,191,98.8z"/>
		<g>
			<path fill="#452831" d="M186.6,92.3H49.7c0,0-3.1,0.9-3.1,16c0,15.1,3.1,16,3.1,16h136.8c0,0,2.5-3.4,2.5-16
				C189.1,95.7,186.6,92.3,186.6,92.3z"/>
			<rect x="126.5" y="92.3" fill="#D45B4C" width="12.9" height="32"/>
			<rect x="152.8" y="92.3" fill="#E2A646" width="6.5" height="32"/>
			<rect x="166" y="92.3" fill="#E2A646" width="6.5" height="32"/>
		</g>
		<g>
			<polygon fill="#5C9E95" points="214.2,68.2 214.1,68.4 214.2,68.2 			"/>
			<polygon fill="#D45B4C" points="91.4,68.5 49.7,92.3 186.6,92.3 213.3,69.1 213.3,69.1 213.3,69.1 214.2,68.2 			"/>
		</g>
	</g>
	<g>
		<g>
			<polygon fill="#D45B4C" points="61.6,63.4 20,87.2 156.8,87.2 183.5,64 183.5,64 183.5,64 184.5,63.1 			"/>
		</g>
		<polygon fill="#FFFFFF" points="182.7,31.3 155.2,55.2 155.2,87.2 182.8,63.1 182.8,31.2 		"/>
		<path fill="#F0EAE5" d="M159.6,61.7c0-3.9,0.5-7.8,1.4-11.6l-5.9,5.1v32l8.2-7.1C160.9,74.3,159.6,68.1,159.6,61.7z"/>
		<g>
			<path fill="#2C3C45" d="M155.2,55.2H18.3c0,0-3.1,0.9-3.1,16s3.1,16,3.1,16h136.8c0,0,2.5-3.4,2.5-16
				C157.7,58.6,155.2,55.2,155.2,55.2z"/>
			<rect x="25.9" y="55.2" fill="#E2A646" width="6.5" height="32"/>
			<rect x="143" y="55.2" fill="#E2A646" width="6.5" height="32"/>
		</g>
		<g>
			<polygon fill="#5C9E95" points="182.8,31.2 182.7,31.3 182.8,31.2 			"/>
			<polygon fill="#E2A646" points="60,31.4 18.3,55.2 155.2,55.2 181.9,32 181.9,32 181.9,32 182.8,31.2 			"/>
		</g>
	</g>
</g>
</svg>
