<?xml version="1.0" ?><!DOCTYPE svg  PUBLIC '-//W3C//DTD SVG 1.1//EN'  'http://www.w3.org/Graphics/SVG/1.1/DTD/svg11.dtd'><svg enable-background="new 0 0 512 512" height="512px" id="Layer_1" version="1.1" viewBox="0 0 512 512" width="512px" xml:space="preserve" xmlns="http://www.w3.org/2000/svg" xmlns:xlink="http://www.w3.org/1999/xlink"><path d="M492.668,442.852c0,34.172-27.702,61.873-61.873,61.873H81.052c-34.171,0-61.875-27.701-61.875-61.873  V93.107c0-34.172,27.704-61.874,61.875-61.874h349.743c34.171,0,61.873,27.702,61.873,61.874V442.852z" fill="#203656"/><path d="M492.668,418.107c0,34.172-27.702,61.873-61.873,61.873H81.052c-34.171,0-61.875-27.701-61.875-61.873  V68.363c0-34.171,27.704-61.873,61.875-61.873h349.743c34.171,0,61.873,27.701,61.873,61.873V418.107z" fill="#3B5998"/><path d="M492.668,418.107V234.256c-7.214-7.355-14.511-14.658-21.873-21.859  c-7.615-7.785-15.335-15.504-23.12-23.121c-7.615-7.785-15.335-15.502-23.119-23.119c-7.615-7.783-15.335-15.504-23.12-23.119  c-7.576-7.746-15.268-15.408-22.998-23.002c-10.273-10.088-24.021-15.365-38.352-15.365c-4.889,0-9.778,0-14.667,0  c-9.376,0-18.752,0-28.128,0c-11.787,0-23.574,0-35.362,0c-12.125,0-24.25,0-36.374,0c-10.388,0-20.774,0-31.162,0  c-6.575,0-13.149,0-19.725,0c-1.209,0-2.418,0-3.628,0c-6.629,0-13.229,1.193-19.415,3.588  c-15.31,5.928-27.351,18.936-32.049,34.668c-1.602,5.367-2.226,10.875-2.226,16.459c0,3.756,0,7.51,0,11.264  c0,11.523,0,23.049,0,34.57c0,3.998,0,7.998,0,11.996c0,7.555,0,15.109,0,22.664c0,11.748,0,23.498,0,35.246  c0,11.295,0,22.592,0,33.887c0,6.195,0,12.391,0,18.586c0,6.084,0.875,12.098,2.841,17.867c1.545,4.533,3.706,8.854,6.4,12.814  c2.782,4.09,6.186,7.6,9.71,11.049c7.609,7.791,15.335,15.504,23.119,23.119c7.61,7.789,15.335,15.504,23.12,23.119  c7.609,7.791,15.335,15.506,23.119,23.119c7.61,7.791,15.335,15.506,23.12,23.121c5.974,6.113,12.031,12.164,18.119,18.174h183.896  C464.966,479.98,492.668,452.279,492.668,418.107z" fill="#28416D"/><path d="M340.934,104.668H170.913c-29.536,0-53.562,24.021-53.562,53.561v56.568v113.455  c0,29.533,24.026,53.553,53.562,53.553H340.94c29.532,0,53.554-24.02,53.554-53.553V214.787v-56.576  C394.487,128.68,370.468,104.668,340.934,104.668z M356.298,136.605l6.124-0.023v6.096v40.879l-46.818,0.15l-0.16-46.971  L356.298,136.605z M216.364,214.787c8.883-12.281,23.28-20.33,39.559-20.33s30.681,8.049,39.546,20.33  c5.777,8.016,9.238,17.832,9.238,28.445c0,26.896-21.904,48.781-48.79,48.781c-26.896,0-48.777-21.885-48.777-48.781  C207.145,232.619,210.595,222.803,216.364,214.787z M367.484,328.24c0,14.654-11.91,26.553-26.551,26.553H170.913  c-14.647,0-26.559-11.898-26.559-26.553V214.787h41.372c-3.575,8.787-5.582,18.385-5.582,28.445c0,41.77,33.99,75.777,75.78,75.777  c41.792,0,75.778-34.008,75.778-75.777c0-10.061-2.021-19.658-5.59-28.445h41.373V328.24z" fill="#FFFFFF"/></svg>